<svg xmlns="http://www.w3.org/2000/svg" viewBox="0 0 240 220" role="img" aria-labelledby="title desc">
  <title id="title">Computer</title>
  <desc id="desc">A friendly desktop computer with a monitor and tower.</desc>
  <defs>
    <linearGradient id="screen" x1="0%" y1="0%" x2="0%" y2="100%">
      <stop offset="0%" stop-color="#8be9ff"/>
      <stop offset="100%" stop-color="#4cc9f0"/>
    </linearGradient>
    <linearGradient id="body" x1="0%" y1="0%" x2="0%" y2="100%">
      <stop offset="0%" stop-color="#325d88"/>
      <stop offset="100%" stop-color="#173a59"/>
    </linearGradient>
    <linearGradient id="tower" x1="0%" y1="0%" x2="0%" y2="100%">
      <stop offset="0%" stop-color="#7a8da6"/>
      <stop offset="100%" stop-color="#4d6179"/>
    </linearGradient>
  </defs>
  <g transform="translate(14 20)">
    <rect x="20" y="12" width="126" height="92" rx="14" fill="url(#body)"/>
    <rect x="30" y="22" width="106" height="72" rx="9" fill="url(#screen)"/>
    <path d="M84 36c14 0 24 7 29 20-18 3-38 3-58 0 5-13 15-20 29-20z" fill="#ffffff" opacity=".28"/>
    <circle cx="83" cy="63" r="5" fill="#174066"/>
    <circle cx="104" cy="63" r="5" fill="#174066"/>
    <path d="M79 77c7 7 22 7 29 0" fill="none" stroke="#174066" stroke-linecap="round" stroke-width="5"/>
    <rect x="74" y="104" width="18" height="22" rx="8" fill="url(#body)"/>
    <rect x="54" y="124" width="58" height="12" rx="6" fill="#173a59"/>
    <rect x="160" y="26" width="44" height="108" rx="12" fill="url(#tower)"/>
    <rect x="168" y="40" width="28" height="14" rx="5" fill="#dff7ff"/>
    <circle cx="182" cy="74" r="6" fill="#8ef2a7"/>
    <rect x="171" y="88" width="22" height="6" rx="3" fill="#cfd9e5"/>
    <rect x="171" y="100" width="22" height="6" rx="3" fill="#cfd9e5"/>
    <path d="M176 160c8-8 15-8 22 0" fill="none" stroke="#ffcf5c" stroke-linecap="round" stroke-width="6"/>
  </g>
</svg>
