<svg xmlns="http://www.w3.org/2000/svg" viewBox="0 0 240 220" role="img" aria-labelledby="title desc">
  <title id="title">Computer</title>
  <desc id="desc">A friendly desktop computer tower with lights and a smiling face.</desc>
  <defs>
    <linearGradient id="towerBody" x1="0%" y1="0%" x2="0%" y2="100%">
      <stop offset="0%" stop-color="#8bc5ff"/>
      <stop offset="100%" stop-color="#4d7de0"/>
    </linearGradient>
    <linearGradient id="frontGlow" x1="0%" y1="0%" x2="1%" y2="100%">
      <stop offset="0%" stop-color="#eef9ff"/>
      <stop offset="100%" stop-color="#cfe9ff"/>
    </linearGradient>
  </defs>
  <g transform="translate(32 18)">
    <ellipse cx="88" cy="184" rx="74" ry="14" fill="#9bdfff" opacity=".35"/>
    <rect x="26" y="8" width="124" height="166" rx="28" fill="url(#towerBody)"/>
    <rect x="42" y="22" width="92" height="136" rx="22" fill="url(#frontGlow)"/>
    <rect x="56" y="38" width="64" height="34" rx="14" fill="#91ebff"/>
    <circle cx="78" cy="98" r="7" fill="#31507a"/>
    <circle cx="100" cy="98" r="7" fill="#31507a"/>
    <path d="M74 116q15 13 30 0" fill="none" stroke="#31507a" stroke-linecap="round" stroke-width="6"/>
    <circle cx="86" cy="134" r="7" fill="#ffcf5c"/>
    <rect x="74" y="146" width="26" height="9" rx="4.5" fill="#7aa3ef"/>
    <circle cx="146" cy="52" r="20" fill="#fff3a6" opacity=".55"/>
    <path d="M150 24c16 10 23 21 24 36" fill="none" stroke="#7fe38a" stroke-linecap="round" stroke-width="8"/>
    <circle cx="168" cy="62" r="10" fill="#7fe38a"/>
  </g>
</svg>
