<svg xmlns="http://www.w3.org/2000/svg" viewBox="0 0 240 220" role="img" aria-labelledby="title desc">
  <title id="title">Keyboard</title>
  <desc id="desc">A bright rainbow keyboard with soft rounded keys.</desc>
  <defs>
    <linearGradient id="keyboardBase" x1="0%" y1="0%" x2="0%" y2="100%">
      <stop offset="0%" stop-color="#ffffff"/>
      <stop offset="100%" stop-color="#dce9ff"/>
    </linearGradient>
  </defs>
  <g transform="translate(14 44)">
    <ellipse cx="106" cy="120" rx="92" ry="15" fill="#bcefff" opacity=".35"/>
    <path d="M18 20c0-11 9-18 20-18h136c9 0 17 6 19 15l16 71c2 12-7 23-20 23H30c-11 0-20-9-20-20L18 20z" fill="url(#keyboardBase)"/>
    <path d="M29 17h147" stroke="#f3f8ff" stroke-width="10" stroke-linecap="round" opacity=".85"/>
    <g>
      <g fill="#6e96f7">
        <rect x="34" y="24" width="24" height="15" rx="5"/>
        <rect x="64" y="24" width="24" height="15" rx="5"/>
        <rect x="94" y="24" width="24" height="15" rx="5"/>
        <rect x="124" y="24" width="24" height="15" rx="5"/>
        <rect x="154" y="24" width="24" height="15" rx="5"/>
      </g>
      <g fill="#ffb347">
        <rect x="28" y="46" width="24" height="15" rx="5"/>
        <rect x="58" y="46" width="24" height="15" rx="5"/>
        <rect x="88" y="46" width="24" height="15" rx="5"/>
        <rect x="118" y="46" width="24" height="15" rx="5"/>
        <rect x="148" y="46" width="24" height="15" rx="5"/>
        <rect x="178" y="46" width="18" height="15" rx="5"/>
      </g>
      <g fill="#ff7eb6">
        <rect x="24" y="68" width="24" height="15" rx="5"/>
        <rect x="54" y="68" width="24" height="15" rx="5"/>
        <rect x="84" y="68" width="24" height="15" rx="5"/>
        <rect x="114" y="68" width="24" height="15" rx="5"/>
        <rect x="144" y="68" width="24" height="15" rx="5"/>
        <rect x="174" y="68" width="24" height="15" rx="5"/>
      </g>
    </g>
    <rect x="58" y="90" width="98" height="15" rx="7.5" fill="#74df93"/>
    <circle cx="44" cy="13" r="8" fill="#ffd251" opacity=".8"/>
  </g>
</svg>
