<svg xmlns="http://www.w3.org/2000/svg" viewBox="0 0 240 220" role="img" aria-labelledby="title desc">
  <title id="title">Monitor</title>
  <desc id="desc">A bright happy monitor with a shiny screen and smile.</desc>
  <defs>
    <linearGradient id="monitorFrame" x1="0%" y1="0%" x2="0%" y2="100%">
      <stop offset="0%" stop-color="#6f96f7"/>
      <stop offset="100%" stop-color="#355da6"/>
    </linearGradient>
    <linearGradient id="monitorFace" x1="0%" y1="0%" x2="100%" y2="100%">
      <stop offset="0%" stop-color="#aff8ff"/>
      <stop offset="100%" stop-color="#53ccff"/>
    </linearGradient>
  </defs>
  <g transform="translate(16 20)">
    <ellipse cx="104" cy="176" rx="86" ry="15" fill="#bdefff" opacity=".35"/>
    <rect x="14" y="2" width="180" height="122" rx="28" fill="url(#monitorFrame)"/>
    <rect x="30" y="18" width="148" height="90" rx="19" fill="url(#monitorFace)"/>
    <path d="M56 36c28-16 77-14 104 10-27 7-72 9-104-10z" fill="#ffffff" opacity=".28"/>
    <circle cx="88" cy="64" r="6.5" fill="#244667"/>
    <circle cx="120" cy="64" r="6.5" fill="#244667"/>
    <path d="M78 84q26 17 52 0" fill="none" stroke="#244667" stroke-linecap="round" stroke-width="7"/>
    <rect x="97" y="124" width="18" height="24" rx="9" fill="#355da6"/>
    <path d="M72 148h68c7 0 12 5 12 12s-5 12-12 12H72c-7 0-12-5-12-12s5-12 12-12z" fill="#284f84"/>
    <circle cx="180" cy="32" r="18" fill="#fff0a9" opacity=".52"/>
    <circle cx="168" cy="18" r="7" fill="#ff7fb2" opacity=".85"/>
  </g>
</svg>
